<svg xmlns="http://www.w3.org/2000/svg" viewBox="0 0 512 512">
  <path fill="#25D366" d="M256 0C114.6 0 0 114.6 0 256c0 45.3 12 89.6 34.8 128.4L0 512l130.8-33.9C167.9 496 211.4 512 256 512c141.4 0 256-114.6 256-256S397.4 0 256 0z"/>
  <path fill="#FFF" d="M391.4 341.1c-5.5 15.6-27.1 28.7-44.3 32.6-11.8 2.5-27 4.5-78.3-16.8-65.8-27.2-108.3-94.2-111.7-98.6-3.3-4.4-26.6-35.3-26.6-67.3s16.4-47.7 22.2-54.3c5.8-6.6 12.7-8.3 17-8.3 4.4 0 8.5 0 12.3.2 3.9.2 9.3-.9 14.5 11.1 5.5 12.8 18.7 44 20.4 47.2 1.7 3.3 2.8 7.2.5 11.5s-3.3 7.2-6.6 11.3-7 8.2-10.5 11c-3.3 2.8-6.7 5.8-2.9 11.6 3.9 5.8 17.2 28.3 36.8 45.9 25.3 22.6 45.9 29.7 52.2 33 6.6 3.3 10.5 2.8 14.4-1.7 3.9-4.4 16.8-19.6 21.3-26.3 4.4-6.6 8.9-5.5 14.8-3.3 6.1 2.2 38.6 18.2 45.2 21.5 6.6 3.3 11 4.9 12.7 7.6 1.7 2.8 1.7 16.3-3.9 31.9z"/>
</svg>
